<?xml version="1.0" encoding="UTF-8" standalone="no"?>
<svg viewBox="0 0 370.95749 157.04375" xmlns="http://www.w3.org/2000/svg">
<g transform="translate(-274.90625,-570.5484)">
<path d="m512.625,262.28125c-1.46623-.0229-3.01291.67843-3.75,1.3125h-.0625c-12.61758,14.57507-25.42452,29.41573-38.03125,44-.9219.74213-1.55005,1.889-2.46875,2.625-.43522-.40828-.87418-.81381-1.3125-1.21875l-.0937-.0312-.0937-.0937c-5.13952-5.11085-11.82437-5.26592-15.75-8.8125-1.48783-1.34416-4.5766-1.53037-6.15625-1.53125-.52655-.00029-.89043.0312-.96875.0312-.13217,0-.20063.0798-.25.21875-.2184-.0618-.44642-.0448-.71875.0312-6.23281,6.25532-10.86829,13.8856-16.3125,20.8125-.46485-.40283-.96501-.78996-1.46875-1.15625-3.59426-2.87218-8.00091-4.44012-11.71875-7.09375 1.05982-2.02874-1.71031.64508-1.96875,1.625-2.74467,2.63666-4.38739,7.04764-6.5625,9.78125-4.83553,9.74163-10.6994,17.25682-16.90625,25.59375-.57778-1.11776-1.04825-2.12987-1.375-2.9375-4.34113-10.7299-31.94425-31.34206-34.75-33.15625-.49779-.29798-1.27864-.39082-2.09375-.375-.79202.0154-1.61226.12854-2.1875.25-.0707-.0107-.14575-.0312-.21875-.0312-1.51656,0-6.13059,5.62685-13.5,16.375-6.17546,9.00679-18.4018,20.64956-35,33.375-7.78124,5.96568-11.5,9.45024-11.5,10.78125 0,1.56959-11.6114,19.8244-11.5625,21.90625-.57974.96405-.9375,1.75372-.9375,2.25 0,.42477 5.2875-4.48399 11.75-10.90625 3.83324-3.80937 5.19389-1.23934 9.03125-5.15625 1.05096-1.07274 4.24745-1.11894 5.03125-2.59375 4.12031-7.75282 10.20359-15.15282 16.59375-20.78125 2.70647-2.38384 5.69466-3.65667 8.3125-4.96875-.88918,2.7627-1.59195,5.93869-2.03125,9.34375-1.56723,12.14766-1.24686-1.68716-2.96875-4.9375-.78566-1.48307-6.34627,4.64479-13.8125,14.0625-1.34633,1.69822-2.15575,6.40451-3.65625,8.0625-2.07659,2.29454-12.79197,5.97143-15.0625,7.9375-6.82957,5.9138-5.14587,8.47185-5.8125,8.53125-.5556.0495.22461,1.02857 1.71875,2.15625 .85047.64187 27.02591-14.97612 31.28125-17.5-17.15345,10.4117-25.96022,18.67406-23.375,18.1875 7.16563-1.34861 12.59032-1.52958 15.4375-2.46875 3.60389-1.18877-.79577,5.47757 7.09375,2.59375 5.76532-2.10737 8.14178-19.45336 9.625-22.65625 .48772-1.05319 1.52863-6.87128 2.3125-12.9375 1.09124-8.44482 1.73806-10.64353 2.6875-9.375 .80493,1.07545-1.35482,9.09688-2.90625,17.125-1.32676,6.86557-2.06455,13.74471-1.96875,16.3125 .0599,1.60576-2.28495,3.94328-3.21875,6.84375-1.34087,4.16489-1.31082,8.8391-.34375,8.8125 1.12512-.031 9.6788-13.42037 9.0625-7.625-.82313,7.74037-1.06057,14.22929-.53125,14.4375 1.82662.71839 2.33743-.66245 2.96875-8.03125 .87657-10.23168 2.98002-16.49546 8.1875-24.34375 3.39908-5.12277 3.98119-6.58688 2.5-6.1875-1.10337.29751-3.27542,2.40913-5.03125,4.875-1.70037,2.38797-3.22984,4.30665-3.40625,4.28125s-.14663-3.53978.0625-7.8125c.48971-10.00525 3.44374-25.79595.5-29.03125-.0776-.0853-.13948-.17618-.21875-.25 3.72582-6.49633 6.598-14.24575 6.15625-14.6875-1.67976-1.67975-9.94112,15.57619-21.46875,23-6.5162,4.19644-9.16572,5.57036-6.5,3.375 9.09987-7.4942 18.51159-18.16684 25.59375-29.03125 3.9958-6.12977 7.71117-11.42891 8.28125-11.78125 .10106-.0625.22913-.055.34375-.0312 .29017.46524.72233.98175 1.25,1.5625 .14601.33573.28649.70978.40625,1.125 .68437,2.37281.96615,2.69083 1.03125,1.125 .13858.42726.36318,1.08703.53125,1.59375-.1572.21924-.28125,3.717-.28125,9.625 0,8.59347.22259,12.10923.5,7.8125s.27741-11.32827 0-15.625c-.0656-1.01612-.12987-1.57153-.1875-1.75 .33564,1.01129.60283,1.78843 1.0625,3.15625 1.40172,4.17112 3.77731,13.33391 5.25,20.34375s3.2153,12.90255 3.90625,13.09375c.72052.19937.49222-4.33088-.5625-10.625l-1.84375-10.96875 2.375,5.1875c2.25586,4.92467 4.7773,11.3298 7.3125,18.28125 .32631,1.07432.68837,2.09099 1.09375,3.03125 8.64218,24.23825 16.96059,53.75061 14.46875,54.125-.4897.0736-5.19069-6.39427-10.4375-14.375-11.23236-17.08511-22.83815-28.36517-21.65625-23.84375-.86648,13.91033-15.10387,26.73207-13.59375,29.125 1.62529,2.57544 17.65715-1.79857 22.28125,5.96875s21.57026,6.02653 22.71875,6.875c5.52616,4.08252 5.22796-7.31432-.75-27.15625-2.42961-8.06433-5.2659-16.55722-8.1875-24.875 1.57028.80932 3.46183,1.12489 5.8125.78125 .78845-.11526-6.06596-19.44593-4.0625-19.8125 1.58451-.28992 12.06479,18.40108 12.8125,18.09375 1.37591,1.53163 3.81549,5.65313 5.40625,9.15625 3.06788,6.75599 13.33196,24.69459 14.5625,25.4375 .40176.24254-1.01247-2.70788-3.125-6.53125s-5.25566-10.09613-7-13.9375l-3.1875-6.96875 3.03125,1.5625c1.65861.85717 19.14343,23.93355 19.71875,23.46875 1.31492-1.0623-20.79538-32.98807-28.8125-47.625 .85719-.88313 1.68143-1.808 2.6875-2.46875 2.92637-2.6263 6.4707-6.18105 9.6875-10.09375 1.56932,1.07488 24.37334,16.74018 28.53125,22.96875 1.66801,2.5237 3.35783,5.23569 5.34375,6.21875 7.02588,3.18363 6.95167,18.3203 14.09375,19.03125 .83686.29566 8.93002-14.1453 9.75-13.625 .2766.3433.52632.6601.71875.96875-.21898-.97264-.47768-2.23098-.65625-4.0625-.74087-1.10619-10.06344,10.36197-10.96875,9.96875-6.07251-.93732-3.9868-12.75952-10-15-2.58493-.54071-5.0217-2.98071-7.1875-6.1875-4.40024-7.10873-8.86336-14.20067-12.8125-22.625 1.11603.0759 2.30602.005 2.71875-.28125 .16961-2.05553-2.53488-2.08604-3.15625-3.78125-2.48423-4.00897-1.77696-8.88029-2.6875-13.34375l.3124.21865c2.59919,3.89827 8.58624,9.4729 10.8125,11.71875 4.76998,4.81196 7.99017,5.82963 8.96875,4.6875 1.7957,2.46951 3.49458,4.97839 4.75,7.78125 1.4651,1.10686-2.16893,3.85248.75,3.875 1.26492.2623 3.57215.89499 4.25-.5625-2.03179-5.14524-5.47297-9.6141-8.71875-14.0625-2.07674-2.73935-3.958-5.69047-6.15625-8.34375-1.03235-1.78648-.20942-3.76129 1.25-5 3.13962-4.31095 6.29432-8.63044 9.75-12.6875 1.3714-.76553 3.61722-.97587 4.28125-2.53125 .51059.83702 1.3712,3.1436 2.09375,5.71875 1.7385,6.19598 2.90663,7.53182 11.3125,12.9375 2.27094,1.46041 4.3545,3.16653 5.53125,4.40625 .0514,2.25045.17284,4.45224.3125,6.4375-.25564.90028-.55853,1.9112-.9375,2.96875-4.46113,12.44927-4.52488,12.75664-2.5,15.46875 2.69708,3.61246 4.51053,3.90243 2.71875.4375-1.6955-3.27875-1.86174-4.19893.28125-9.75 .61804,1.41357 1.38922,2.75766 2.03125,4.15625 1.91195,3.59966 4.54114,6.8177 7.6875,9.40625 .51002,1.344 1.18257,3.00428 2,4.75 5.31789,11.35701 12.86103,24.66258 15.65625,27.65625 1.44647,1.54916 3.78414,3.29599 5.1875,3.90625 2.47988,1.07832 2.44271.93767-.34375-5.71875-3.45036-8.24238-8.71323-17.50123-13.40625-24.28125 3.34402,2.22445 6.7246,4.42445 10.125,6.5625 1.49916.877 2.80562,2.02265 4.3125,2.875 1.34989.63132 2.69124-.34197 3-1.6875 .51789-1.34321 1.81157-2.01227 2.59375-3.15625 1.19658-1.68017 1.84561-3.62885 2.4375-5.59375 .60045-1.12574 1.14889-2.29841 1.9375-3.28125 1.75798-2.85028 3.49581-5.70989 5.25-8.5625 .11506-.0362.22735-.0922.34375-.125 .57412-.26599.97042-1.28643.8125-1.75 9.46058-15.39351 18.8973-30.79745 28.3125-46.21875 .44593-.30791 1.37162-1.40653 1.4375-2.125 .65629-1.30431 1.14791-2.77594 1.9375-3.9375 1.82286-3.20554 3.94642-6.03054 6.28125-8.4375 .21593-.21765.43664-.41559.65625-.625-3.71889,6.7296-6.60714,12.86147-10.59375,19.71875-.92654,1.17996-16.34637,36.3565-16.9375,37.84375-.36222,4.40876 7.23312-3.22702 11.28125-10.5-2.97317,7.38173-7.55269,17.4123-7.6875,20.8125 .0493,6.66276 10.70515-.27547 10.28125,6.375-.30192,1.52939 1.23349.28278 1.40625-.46875 .57191-1.53591.35813-3.22176.6875-4.8125 .39902-2.87047.5244-5.80798 1.03125-8.65625 .74509-2.3153 2.35769-4.26333 2.8125-6.6875 1.06236-4.10767 2.19502-8.19674 3.34375-12.28125-.47071,5.28809-.44881,10.64577.46875,15.875-.84012,2.27148-1.69776,4.53856-2.53125,6.8125-1.31891.71884.16023,2.91139 1.375,2.25 1.2477-1.46591 1.51127-3.39378 2-5.21875 1.04605,3.68651 2.95276,7.21828 6.0625,9.53125 1.25742.92974 3.075,1.67591 4.5625.84375 1.36553-.8871.96012-3.26849-.5625-3.75-1.31145-.88271-1.62771-2.6588-1.1875-4.09375 .49383-3.11852.11699-6.35049 1.03125-9.40625 .63695-3.05193 2.01418-5.86889 3.15625-8.75 .5499-1.35587 2.24821-2.14928 3.46875-1.125 1.10944.86035 2.14713,2.24208 3.71875,2.09375 1.88219-.0871 3.12749-1.88136 3.46875-3.59375 1.18459-4.71896-.40345-9.61942-2.625-13.78125-2.2382-4.22188-4.81299-8.23059-7.1875-12.375-1.94221-6.36679-3.03062-12.57622-3.625-11.9375 .32258-.54079.70423-1.03858 1.125-1.5 2.31879,6.08811 3.65221,15.96958 7.28125,17.5 2.01906.82077 3.99409,1.79908 5.90625,2.84375 1.49225,1.58585-.52036,3.29647-1.71875,4.1875-.69075,1.9094 1.86244,2.98689 3.1875,1.75 1.93919-.97945 3.32051-3.72918 1.8125-5.625-2.18649-3.20776-5.14746-7.40617-8.46875-9.09375-2.0842-.87025 1.99128-16.08349-.15625-16.78125-1.95814.90831-6.04905-8.18683-4.84375-10.03125 .41172-.75585 3.87172,1.06064 8.15625,4.09375-1.46462-.36747-5.71867-2.73007-5.28125-1.375 .15886,1.60879 2.47532,4.4114 3.75,7.75 1.717,4.49709.35773,11.88165.90625,13.96875 3.04371,9.06646 11.951,12.8182 18.1875,20.0625 2.13633,2.46319 4.72479,5.00407 4.9375,8.46875 .42058,2.68313.30871,5.51475 1.46875,8.03125-.35445-2.77177.56607-5.53086.40625-8.3125 .18362-3.97565.40623-8.44685-2.28125-11.71875-3.74005-5.07575-5.29683-13.55447-8.84375-18.78125-2.20644-3.25142-3.53144-7.54627-5-11.53125 1.21324,1.07452 2.38469,2.17045 3.5,3.28125 5.59332,5.5707 8.94093,15.01283 9.5,16.90625 .92946-.004 11.56103,8.50742 23,17.625-1.05175-.49824-2.09412-.97344-3.1875-1.375l-.0937.25c-.2183,1.45924-.20852,3.44585-1.8125,4.125-1.69443.69347-3.23743,1.70431-4.6875,2.8125-.53818,1.4442.87997,2.50238 1.90625,3.21875 2.40904,1.73822 3.62221,4.90821 6.5625,5.9375 3.45165,1.91504 7.47761,3.4548 9.53125,7.0625 .96005,1.59474 1.68737,3.35022 2.40625,5.0625-.28242-1.97393 1.49794-3.74137.8125-5.71875l-1.0313-8.625c-1.13278-1.31392-.89057-3.13853-1.25-4.71875-.36857-.44608-.66009-.95362-.90625-1.46875 11.81987,9.33621 22.34627,17.35907 21.46875,15-.73216-1.96832-57.78508-55.25222-60.0625-58.53125-1.52907-1.2096-4.33032-3.19144-7.46875-5.28125l-.0312-.0312c-.1843-.28073-.54908-.45911-.96875-.625-6.354-4.1725-13.84656-8.56065-16.09375-8.28125-.40644-.18432-.64243-.28642-.8125-.21875-.51021.20301-.66371,1.88804-4.6875,7.125-1.21472,1.58097-2.84284,3.55955-4.46875,5.53125-.76794.67986-1.51478,1.38652-2.25,2.125-1.05834,1.14857-2.02121,2.49629-2.9375,3.875-3.50932,6.77095 1.12789-3.28439-4.3125,5.84375-.0756.5415-.21148,1.08781-.3125,1.625-2.00515,4.16786-5.18296,11.4574-6.6875,12.5-2.09309,1.78051-4.5758,6.39925-7.09375,7.65625-1.90566-.17437.0806.43199-.8125,1.375-2.38029,6.01061-4.24599,10.22665-7.46875,15.84375-2.84427,5.14081-6.44898,9.98047-10.03125,14.8125-2.33254,1.0411-4.88255,1.60302-7.40625,1.1875-2.67522-4.41773-5.17111-8.95893-7.6875-13.46875-3.58379-5.32311-8.83822-9.14305-13.21875-13.75-3.15271-3.11695-6.28007-6.26138-9.46875-9.34375 .89986-1.63832 1.784-3.67043 2.5625-4.09375 3.57109-4.16208 7.09372-8.37408 10.8125-12.40625-.0475.46469-.0994.92616-.15625,1.375-.0646,1.59082.76012,3.24148 1.875,3.40625-.10634.22334-.17172.38874-.3125.65625 .13358-.22854.26832-.44001.40625-.65625 .0437.003.0805.0329.125.0312 .22332.0374-3.91102,7.75015-3.6875,7.71875l4.375-7.71875c3.28678-.87767 4.19052,18.78128 6.90625,16.0625 1.06023-1.14682 4.01893-24.65405 4.9375-26.03125 .7519-.74443 1.90141-.08 2.15625,1.15625 .52118,1.74614 1.39727,3.56766 2.75,4.03125 .6425.11749 1.17501.66872 1.53125,1.4375-.6297-1.26383-.27261-3.11337-1.0625-4.25-.88227-.79062-1.45268-2.23757-1.40625-3.75 .009-1.49764.19573-2.9913.34375-4.46875 .0572-.40509.1361-.81735.21875-1.21875 .1034-.0648.17025-.0843.28125-.15625 1.14628-1.38037 2.13115-1.17104 3-.34375 .11274,1.17604.22194,2.33815.28125,3.53125-.24716,5.12768-.74784,10.21352-1.1875,15.28125-.32251,5.16217-1.54765,9.80772-2.9375,14.0625-.26829,1.24798-1.10029,2.03101-1,3.5625 .13448.51877.4114-.0791.5-.375 1.01201-2.38299 1.91632-4.9415 2.78125-7.5625 1.54507-4.91487 3.8808-8.75569 4.9375-14.3125 .36783-3.36993 1.0635-6.51605 1.78125-9.625 3.75522-2.44093 12.45097-11.63794 13.375-9.75 4.57126,9.33974 1.41409,4.25764 9.8125,12.625 3.47945,5.76591.91173-1.2681-.21875-3.84375-5.55985-5.82138.96327,1.09952-4.53125-4.78125-4.43496-10.17685-11.16445-17.20126-15.71875-19.71875-.096-.0531-.24959-.1197-.375-.125-.58242-.51147-1.30454-.73817-2.0625-.75zm80.46875,41.84375c-.10451.00041-.0893.0862.0625.3125-.0125-.0555-.026-.18873-.0625-.3125zm-133.3125,68.96875c.73612,3.2697 1.38999,2.2295 0,0zm55.25-109.0625c.0207.0252.0403.0361.0625.0625 3.18435,3.78858 11.50109,12.56139 10.6875,12.34375-.78726-.21061-6.57034-.055-7.34375-1.46875-.71031-1.29836-3.26995-1.59987-4.1875-3.71875-.78971-1.82365.70154-5.42554.78125-7.21875zm-6.40625.4375c.038.0188.0738.0491.125.0625-.0505-.006-.10432-.005-.15625,0l.0312-.0625zm-3.625,5.25c-1.66537,3.60951-3.34367,8.04151-4.59375,9.875 3.04357-2.0288 10.91768-6.58246 9-5.34375-3.03059,2.24285-9.59629,6.2351-12.65625,8.4375-.47065-1.57468.99137-2.7469 1.75-3.9375 1.80991-3.29818 4.21218-6.11257 6.5-9.03125zm-4.59375,9.875c-1.07148.71423-1.55,1.12341-.78125.84375 .23314-.0982.49358-.42183.78125-.84375zm56.25,4.125c.63632.0315 1.20084.33093 1.71875.8125-.031.0718-.0529.15157-.0937.21875-.066.18246-.0967.3847-.0937.5625-.53122-.48619-1.03829-1.07179-1.53125-1.59375zm-59.375,1.28125c-2.67064,1.87498-6.57903,5.62126-9.90625,11.8125-.18592.34596-.2898.61469-.375.84375-.17535-.60259-.19841-1.28216.125-1.8125 .17062-.46914.0772-.94695-.125-1.3125 1.00101-1.0396 2.02132-2.06071 3.0625-3.0625 2.78023-1.51594 3.24221-5.25676 6.15625-6.25 .40009-.0894.73812-.17413 1.0625-.21875zm2.46875.15625c.282.0965.50849.2132.71875.3125-.14517.27049-.26935.53476-.4375.78125-.77201,1.35239-1.71769,2.07768-2.71875,2.65625 1.06601-1.52849 1.90449-2.80642 2.4375-3.75zm59.71875,5.0625c-.21064.57455-.33745,2.28883-.4375,5.5625-1.20544,1.42602-2.32492,2.92813-3.3125,4.5 .81796-2.54905 1.6892-5.1047 2.59375-7.625 .33312-.82908.70814-1.65535 1.15625-2.4375zm.65625,11.03125c-.603,2.01536-3.34652,13.43467-4.375,14.0625-.27192,1.85941-.11888,4.08765 1.53125,5.28125 .46364.65466 6.2812-5.93023 6.0625-5.8125-2.45356,3.35421-5.27919,8.53938-6.1875,10.0625-.0179-.3895-.15031-.67653-.625-.5-2.08611,1.02855-2.58294,3.51748-3.375,5.5 .0195-.35346.0219-.70875.0312-1.0625l.78125-9.53125c-.54244-1.86951.81063-3.5253 1.28125-5.25 .50798-1.16052 3.50123-12.81088 4.875-12.75zm-111.96875,2.5625 4.8125,1.375c-.19579.28905-.13925.32501.0625.0312l2.65625.75c3.79694,1.09404 9.14303,3.992 7.6875,3.84375l3.09375.3125c.078.40235.26794.79803.53125,1.15625-.2805.2328-.5196.53588-.75.875-.0903-.14704-.23812-.2942-.40625-.46875-1.28359-1.69949-5.41268-1.89895-6.84375-2.53125-3.27344-.1151-6.42645-1.16881-9.5625-2.40625l-.0937-.0312-1.1875-2.90625zm1.28125,2.9375c-.0136.006.0388.0195.28125.0312 .14145-.006.17065-.0265.21875-.0312-.15086-.005-.41975-.008-.5,0zm1.75-.28125c-.0229.00058-.0396.0365-.0625.0625 .17872.0412.1312-.0642.0625-.0625zm-.4375,4.53125c.89951.26958 1.83775.14549 2.6875.125 1.40269,3.41496 3.97931,7.068 9.09375,7.84375 .3378,1.00669 1.04641,3.10265 1.75,2.125-.0144.32324-.0222.64037-.0312.96875-1.56525-1.1615-3.68604-2.56777-5.78125-3.8125-5.29127-3.14349-6.79271-4.35424-7.71875-7.25zm127.71875,2.9375 1.15625,5.09375c-.20946-.77245-1.56891-1.31901-2.21875-1.78125-.93198-.66304-.58637-.85297.0312,2.625 .009,2.75637 1.39138,4.6811 1.125,7.4375-.69646,4.52566-5.04871,4.93858-7.375,9-1.93206,2.46436 1.4492,13.89361-1.375,13.28125-1.4298-.39949-6.86426-7.22656-6.5-5.09375 .23142,1.31665 1.53806,1.94136 2.6875,2.25 5.25153,2.49636-3.88629,20.61986-.21875,25.09375 1.40351,1.66747 2.67045,3.46555 3.875,5.28125 .58074,2.09868-1.99315,2.64548-3.46875,2.875-1.50131,1.36711.25109,3.57018 2,3.09375 2.17218.0376 4.66892-1.77601 4.21875-4.15625-.43871-3.8572-3.1611-6.8648-5.3125-9.90625-1.43806-1.74161 10.63701-17.69396 9.0625-19.3125-2.15577-.10942-3.08247-3.46152-1.15625-4.53125 1.34177-.89254 10.07189,6.75542 13.375,17.34375 1.42344,4.56294 1.44443,9.97473 1.15625,14 1.18021-2.8343 3.0505-5.31551 1.84375-15.15625-.3029-2.47005-9.5222-13.17899-10.46875-20.75-1.11676-8.93231 6.80439-6.1459 5.3125-12.40625-2.40623-10.09721-4.69383-8.43521-5.4375-9.40625-.23476-.28135-1.91512-4.79073-2.3125-4.875zm-164.125.84375c1.43514.33552 2.97026.59005 3.40625.96875 4.2081,2.37601 6.96481,4.49535 9.5625,7.75-3.14398-2.26204-7.2543-4.60151-12.5-6.71875-.008-.0314-.0226-.0624-.0312-.0937-.1631-.58839-.28247-1.25583-.4375-1.90625zm56.875,1.03125c1.52472,1.70172 2.99275,3.45258 4.3125,5.3125l-1.53125-1.09375c-.50167-.35888-1.61343-2.25815-2.78125-4.21875zm-59.5,2.3125c.04-.28654 1.73386,3.35163 1.65625,5.15625-.55705-1.52372-1.15288-3.00542-1.78125-4.375 .0725-.1253.14294-.25229.21875-.375-.0794-.2383-.0997-.36343-.0937-.40625zm199.9375.78125c-.0279.008-.0277.0551.0625.0625 .0213-.0399-.0346-.0706-.0625-.0625zm-200.1875.25c.69907,2.84662-2.20387,7.57998-5.15625,11.5 2.45996-4.00984 3.30698-8.17315 5.15625-11.5zm-55.34375,2.90625c.74469,1.01932 1.49811,2.0826 2.28125,3.0625 3.35564,4.23647 4.98866,10.38326 6.21875,16.6875-3.09728-7.77152-6.02841-14.59218-8.5-19.75zm122.25,3.65625c.37583.7084.70451,1.42192 1.03125,2.15625-1.70959,2.18214-3.60847,7.06986-3,11.90625 .56898,4.52262 3.73832,8.68769 5.875,14.15625 1.28293,3.2835-8.05575-10.87484-8-15.625 .0206-1.75869 2.41215-6.56737 3.59375-10.3125 .26133-.8283.41897-1.60308.5-2.28125zm109.53125.53125c-.32895-.0675-.32585,1.33859.1875,4.25 .44326,2.51388.34831,6.1712-.21875,8.125-1.26287,4.35119 1.49209,10.67753 3.8125,8.75 .75069-.62361 1.2835-2.53796 1.1875-4.25-.16085-2.87014.0208-3.06104 2.125-2.5625 1.25512.29737 2.94463.19304 3.75-.25 1.91644-1.05424 2.0119-.80248 3.46875,8.625 1.04138,6.73892.97354,7.89184-.53125,7.09375-1.68287-.89255-1.80485-.82084-1.59375.9375 .12386,1.03179 1.04136,2.74743 2.03125,3.8125 1.20292,1.29428 2.25781,1.55642 3.15625.8125 1.62394-1.34465-.15695-17.29412-2.59375-23.3125l-1.625-4.0625-2.3125,2c-1.91898,1.6801-2.75098,1.80176-4.96875.625s-2.89554-2.19442-4-6c-.86596-2.98372-1.54605-4.52629-1.875-4.59375zm-31.4375.75c-.88563,3.69477-1.72163,7.4118-2.78125,11.0625-.39808,1.21063-.86372,3.8798-1.1875,4.1875-.17543-1.79339-.10923-3.58861.0312-5.375 1.16574-3.34722 2.42481-6.66985 3.9375-9.875zm54.90625,2.1875c.037-.0119.0816-.0142.125,0 3.91781,1.33062 6.20013,5.00903 9.15625,7.65625 1.10256,1.08572 2.30469,2.10985 3.375,3.21875-1.49683.61635-2.30743-1.36167-3.375-2.03125-3.06054-2.96888-5.91594-6.15983-9.46875-8.5625 .005-.11312.0766-.2455.1875-.28125zm-129.71875,4.59375c1.00917,2.81486 1.9447,5.6579 2.875,8.5-1.14745-1.80972-2.07113-3.5691-2.375-5.0625-.22594-1.11037-.36897-2.28514-.5-3.4375zm-16.59375,5.3125c.0193.18667.0359.37532.0625.5625-.0591-.0954-.13371-.18366-.1875-.28125 .0409-.1024.083-.17628.125-.28125zm42.84375,11.5c-1.00281,1.36198-2.00458,2.71914-2.96875,4.09375-.25769-.59599-.53946-1.16352-1.03125-1.59375-.23844-.37139-.45279-.75138-.6875-1.125 .48826.0406.9896.0469 1.46875-.125 1.1325-.26811 2.17649-.75014 3.21875-1.25zm-202.46875,13.875c.40113-.1583-.70546.82151-3.03125,2.8125-4.23555,3.62584-8.27458,7.3327-11.9375,10.875 3.87673-4.6048 7.42293-8.65301 8.9375-9.6875 3.72126-2.54171 5.63012-3.8417 6.03125-4z" transform="translate(0,308.2677)"/>
<path d="m584.61172,648.2562c-.24254.27429.24612-.12397 0,0z"/>
</g>
</svg>
