<!--?xml version="1.0" standalone="no"?--><svg version="1.0" xmlns="http://www.w3.org/2000/svg" width="177.000000pt" height="300.000000pt" viewBox="0 0 177.000000 300.000000" preserveAspectRatio="xMidYMid meet">
<metadata>
  <rdf:rdf xmlns:rdf="http://www.w3.org/1999/02/22-rdf-syntax-ns#" xmlns:rdfs="http://www.w3.org/2000/01/rdf-schema#" xmlns:dc="http://purl.org/dc/elements/1.1/">
    <rdf:description dc:title="dr house lupus stencil" dc:publisher="Hiox" dc:date="2015-05-11" dc:format="image/svg+xml" dc:language="en">
      <dc:creator>
        <rdf:bag>
          <rdf:li>svgimages.com</rdf:li>
        </rdf:bag>
      </dc:creator>
    </rdf:description>
  </rdf:rdf>
</metadata>
<g transform="translate(0.000000,300.000000) scale(0.100000,-0.100000)" fill="#0C0C0C" stroke="none">
<path d="M730 2933 c-52 -20 -108 -37 -125 -38 -82 -6 -81 -5 -63 -17 13 -10
2 -20 -77 -65 -51 -29 -102 -53 -112 -53 -11 0 -29 -10 -41 -23 -26 -27 -28
-42 -7 -33 40 15 3 -81 -54 -139 -40 -40 -161 -221 -161 -240 0 -3 7 -5 15 -5
19 0 19 -3 -6 -51 l-20 -41 22 7 c20 7 21 5 16 -23 -4 -17 -2 -34 3 -37 5 -3
7 -12 3 -20 -6 -18 8 -20 26 -2 10 10 11 6 5 -18 -4 -16 -11 -40 -15 -53 -5
-13 -9 -40 -9 -60 1 -33 2 -35 14 -19 7 9 15 17 18 17 6 0 -8 -100 -18 -124
-6 -15 -4 -18 8 -13 12 4 20 -5 31 -38 8 -25 10 -42 6 -39 -15 9 -10 -54 7
-94 13 -32 25 -77 38 -142 2 -8 6 -41 11 -73 6 -49 11 -58 32 -63 16 -4 30 0
43 11 20 18 20 17 20 -52 0 -83 20 -157 65 -239 19 -33 43 -85 54 -115 33 -86
31 -84 90 -55 63 32 66 27 6 -11 -25 -15 -45 -32 -45 -36 0 -15 49 -103 64
-116 9 -7 24 -10 38 -6 22 7 22 6 6 -10 -15 -17 -15 -20 5 -47 48 -65 177
-106 306 -96 63 5 154 43 189 79 97 99 123 134 161 214 l42 88 -33 34 c-17 18
-35 33 -38 33 -4 0 -12 -17 -18 -38 -6 -20 -18 -46 -26 -57 -15 -20 -15 -20
-16 3 0 12 5 22 10 22 6 0 10 15 10 34 0 42 -21 52 -58 29 l-27 -17 25 25 c18
19 30 23 43 17 12 -6 19 -4 23 7 9 23 -30 61 -80 78 -22 8 -50 18 -61 23 -18
7 -19 6 -5 -11 12 -15 8 -14 -20 5 -40 25 -50 68 -25 103 9 12 15 44 15 73 0
45 -4 54 -35 83 -26 23 -35 40 -35 64 0 17 -5 39 -11 47 -7 11 -8 -4 -3 -50 7
-76 9 -80 34 -80 21 0 30 -19 30 -61 0 -21 -4 -28 -12 -23 -26 16 -54 10 -86
-17 -42 -37 -89 -39 -130 -4 -31 26 -66 33 -77 14 -11 -17 15 -72 49 -102 19
-17 22 -23 9 -15 -19 11 -25 9 -45 -9 -26 -24 -160 -93 -181 -93 -19 0 -41 50
-27 64 16 16 12 26 -11 26 -18 0 -20 4 -15 27 22 90 18 105 -67 212 -28 35
-59 87 -69 115 -9 28 -21 50 -27 49 -20 -5 -24 195 -6 332 8 55 9 57 17 30 4
-17 4 -54 -2 -85 -10 -56 -4 -141 12 -174 8 -15 18 -17 49 -13 36 5 40 3 54
-27 27 -56 95 -81 159 -56 44 16 29 27 -40 32 -54 3 -70 8 -85 27 -17 21 -18
25 -3 54 l16 31 14 -26 c25 -48 81 -49 103 -2 13 29 32 28 46 -4 9 -21 35 -28
87 -24 9 1 20 -8 24 -21 7 -21 8 -21 20 8 9 22 20 32 45 36 l34 6 -32 8 c-26
6 -32 13 -35 39 l-3 31 -125 6 c-69 3 -138 11 -153 17 -19 8 -34 9 -47 2 -23
-12 -90 -13 -109 -1 -11 7 -12 22 -8 63 7 55 -7 128 -23 128 -17 0 -12 165 6
212 20 51 80 118 106 118 15 0 17 -3 8 -19 -17 -33 -12 -33 34 -2 34 24 61 32
127 41 46 5 109 17 139 25 72 19 70 20 70 -20 0 -19 2 -35 5 -35 3 0 28 11 55
25 63 32 70 31 70 -5 0 -37 9 -38 41 -4 30 33 134 84 170 84 41 0 85 -58 93
-122 l7 -51 23 22 c31 29 36 27 36 -20 0 -32 4 -42 20 -46 18 -5 20 -14 20
-74 0 -38 2 -69 4 -69 3 0 17 5 31 10 24 9 24 7 -9 -24 -20 -18 -36 -37 -36
-42 0 -5 9 -38 20 -73 22 -72 18 -107 -12 -117 -39 -12 -189 -10 -200 4 -8 9
-18 7 -46 -10 -19 -12 -51 -23 -71 -24 -20 -1 -60 -6 -89 -10 -49 -6 -53 -9
-47 -28 3 -11 7 -26 9 -33 1 -7 5 -16 9 -19 4 -4 7 -23 8 -43 0 -20 3 -30 6
-23 2 6 13 12 24 12 13 0 19 6 17 18 -4 21 46 30 67 12 15 -13 15 -13 30 35 7
23 35 18 61 -10 31 -34 57 -31 87 7 22 28 28 30 42 18 25 -21 15 -61 -24 -87
-25 -17 -49 -23 -90 -23 -65 -1 -52 -16 21 -26 34 -5 54 -1 86 15 22 11 43 25
47 30 4 7 14 6 30 -1 18 -8 28 -8 39 1 25 21 48 121 50 218 0 50 4 83 8 73 17
-47 49 -221 45 -251 -4 -32 -4 -32 -5 7 -2 44 -20 104 -31 104 -3 0 -14 -35
-24 -77 -15 -67 -15 -78 -3 -85 13 -7 13 -15 2 -51 -32 -106 -65 -151 -164
-228 l-33 -25 21 -26 c22 -29 26 -58 10 -74 -8 -8 -7 -19 1 -38 10 -20 10 -29
1 -38 -22 -22 -13 -64 23 -112 20 -25 38 -46 40 -46 2 0 22 34 44 75 38 69 91
235 91 285 0 18 3 19 20 10 43 -23 84 25 74 87 -5 33 -2 42 25 67 26 25 31 37
31 78 0 26 -4 48 -9 48 -11 0 -21 -25 -21 -55 0 -12 -9 -33 -20 -46 -23 -29
-25 -22 -5 17 8 16 15 37 15 47 0 34 33 78 52 71 10 -3 18 -2 19 3 0 4 4 49 8
98 7 69 5 96 -5 117 -17 33 -8 61 17 55 22 -6 23 0 4 33 -19 33 -19 60 0 60
22 0 19 63 -6 112 -17 34 -18 40 -5 35 20 -8 20 -4 -4 43 -25 48 -25 50 0 50
l20 0 -20 40 c-24 47 -25 51 -4 43 23 -9 -19 72 -60 115 -19 20 -24 31 -13 27
20 -8 21 4 7 55 -8 28 -18 39 -45 49 -27 9 -34 17 -30 30 4 14 -6 21 -55 34
-40 11 -60 22 -60 32 0 9 -13 18 -31 22 -19 3 -34 14 -39 27 -4 12 -33 41 -64
64 -49 38 -61 42 -91 36 -28 -5 -38 -2 -52 15 -22 26 -98 41 -207 40 -67 0
-97 -7 -176 -36z m-484 -1238 c9 -40 -4 -27 -16 15 -6 20 -6 30 -1 24 5 -5 13
-22 17 -39z m6 -70 c3 -13 1 -22 -3 -19 -9 5 -13 44 -5 44 2 0 6 -11 8 -25z
m1242 -20 c-4 -8 -8 -15 -10 -15 -2 0 -4 7 -4 15 0 8 4 15 10 15 5 0 7 -7 4
-15z m-1157 -47 c-3 -8 -6 -5 -6 6 -1 11 2 17 5 13 3 -3 4 -12 1 -19z m1193
-42 c0 -56 -9 -72 -36 -62 -13 5 -12 10 2 43 9 21 16 46 16 56 0 9 3 17 9 17
5 0 9 -24 9 -54z m-1240 -2 c0 -8 6 -13 13 -11 6 1 12 -5 12 -13 0 -8 -10 -15
-21 -16 -18 -1 -22 4 -21 32 1 31 17 39 17 8z m564 -373 c28 -26 51 -20 65 17
8 24 10 24 10 6 1 -35 28 -48 110 -55 l76 -6 -83 -1 c-53 -1 -94 -8 -114 -18
-25 -13 -35 -13 -59 -3 -17 6 -67 15 -112 19 l-82 7 70 2 c86 2 98 8 92 52 -2
19 -2 27 0 18 2 -9 14 -26 27 -38z m-254 -66 c0 -2 -10 -9 -22 -15 -22 -11
-22 -10 -4 4 21 17 26 19 26 11z m535 -20 c28 -7 44 -13 37 -14 -7 0 -28 -16
-47 -35 -19 -19 -47 -36 -62 -38 -31 -3 -143 15 -162 26 -8 5 -11 -10 -11 -52
0 -52 3 -60 24 -72 19 -10 32 -10 53 -2 79 31 123 -17 64 -70 -43 -38 -67 -36
-94 9 l-22 38 -9 -28 c-14 -39 -53 -37 -67 3 -14 39 -25 38 -33 -1 -6 -30 -8
-31 -47 -26 -52 7 -60 15 -31 34 12 9 22 22 22 30 0 11 7 13 24 9 14 -3 28 -2
31 4 3 5 22 10 41 10 l34 0 0 60 0 60 -32 0 c-18 0 -46 -7 -63 -16 -44 -23
-175 -4 -175 26 0 4 16 18 36 31 34 20 44 21 162 16 70 -3 147 -2 172 2 63 12
98 11 155 -4z m-88 -147 c-3 -8 -6 -5 -6 6 -1 11 2 17 5 13 3 -3 4 -12 1 -19z" id="node1" class="node"></path>
<path d="M797 1613 c-11 -10 -8 -73 3 -73 6 0 10 18 10 40 0 41 -2 45 -13 33z" id="node2" class="node"></path>
<path d="M750 1513 c-19 -8 -30 -23 -30 -46 0 -17 1 -17 29 -1 48 28 48 65 1
47z" id="node3" class="node"></path>
<path d="M10 505 l0 -135 35 0 35 0 0 135 0 135 -35 0 -35 0 0 -135z" id="node4" class="node"></path>
<path d="M170 610 l0 -30 100 0 100 0 0 30 0 30 -100 0 -100 0 0 -30z" id="node5" class="node"></path>
<path d="M464 625 c-3 -8 -2 -32 3 -52 7 -31 13 -38 33 -38 23 0 25 4 28 53
l3 52 -31 0 c-18 0 -33 -6 -36 -15z" id="node6" class="node"></path>
<path d="M657 620 c-20 -16 -27 -31 -27 -55 0 -39 31 -68 91 -86 41 -13 58
-36 34 -45 -21 -8 -20 -64 1 -64 23 0 74 55 74 80 0 23 -41 70 -62 70 -7 0
-28 9 -47 21 -32 19 -32 21 -16 39 20 22 17 53 -6 58 -8 1 -27 -7 -42 -18z" id="node7" class="node"></path>
<path d="M740 610 c0 -16 5 -30 10 -30 6 0 10 -7 10 -16 0 -11 8 -14 33 -12
26 2 31 7 29 23 -4 23 -47 65 -68 65 -9 0 -14 -11 -14 -30z" id="node8" class="node"></path>
<path d="M1101 613 c0 -17 28 -71 67 -133 56 -86 72 -106 95 -108 42 -5 35 31
-24 123 -28 44 -60 95 -71 113 -27 43 -68 46 -67 5z" id="node9" class="node"></path>
<path d="M1230 587 c0 -40 5 -59 21 -75 11 -12 24 -20 30 -17 5 4 9 37 9 76
l0 69 -30 0 c-30 0 -30 -1 -30 -53z" id="node10" class="node"></path>
<path d="M1359 611 c-27 -28 -29 -34 -29 -111 0 -73 3 -83 25 -105 31 -32 65
-33 65 -2 0 12 -9 30 -20 40 -16 13 -20 29 -20 72 0 44 4 57 20 67 25 16 28
68 4 68 -8 0 -29 -13 -45 -29z" id="node11" class="node"></path>
<path d="M1430 615 c0 -14 8 -29 20 -35 17 -9 20 -21 20 -75 0 -54 -3 -67 -20
-77 -11 -7 -20 -23 -20 -35 0 -30 30 -30 65 0 22 18 27 34 32 83 7 78 -9 129
-47 149 -40 21 -50 19 -50 -10z" id="node12" class="node"></path>
<path d="M1560 610 l0 -30 100 0 100 0 0 30 0 30 -100 0 -100 0 0 -30z" id="node13" class="node"></path>
<path d="M247 564 c-4 -4 -7 -49 -7 -101 l0 -93 30 0 31 0 -3 98 c-3 89 -5 97
-23 100 -12 2 -24 0 -28 -4z" id="node14" class="node"></path>
<path d="M1637 564 c-4 -4 -7 -49 -7 -101 l0 -93 30 0 31 0 -3 98 c-3 89 -5
97 -23 100 -12 2 -24 0 -28 -4z" id="node15" class="node"></path>
<path d="M1094 516 c-3 -7 -4 -42 -2 -77 l3 -64 33 -3 32 -3 0 54 c0 40 -6 61
-21 81 -23 29 -37 33 -45 12z" id="node16" class="node"></path>
<path d="M630 441 c0 -21 53 -71 76 -71 20 0 18 45 -3 70 -23 27 -73 27 -73 1z" id="node17" class="node"></path>
<path d="M290 155 l0 -135 30 0 30 0 0 135 0 135 -30 0 -30 0 0 -135z" id="node18" class="node"></path>
<path d="M520 183 c1 -69 5 -114 13 -124 11 -15 49 -39 61 -39 10 0 6 59 -4
65 -6 3 -10 50 -10 106 l0 99 -30 0 -30 0 0 -107z" id="node19" class="node"></path>
<path d="M650 190 c0 -80 -3 -102 -15 -106 -9 -4 -15 -19 -15 -35 0 -36 25
-39 64 -8 25 20 26 23 26 135 l0 114 -30 0 -30 0 0 -100z" id="node20" class="node"></path>
<path d="M750 155 l0 -135 30 0 30 0 0 135 0 135 -30 0 -30 0 0 -135z" id="node21" class="node"></path>
<path d="M840 266 c0 -16 7 -27 20 -31 11 -3 20 -13 20 -22 0 -8 -9 -17 -20
-20 -14 -4 -20 -14 -20 -35 0 -29 2 -30 33 -24 67 13 92 95 41 135 -38 30 -74
28 -74 -3z" id="node22" class="node"></path>
<path d="M980 184 c0 -103 1 -106 29 -135 16 -16 37 -29 45 -29 21 0 21 43 1
60 -11 10 -15 36 -15 111 l0 99 -30 0 -30 0 0 -106z" id="node23" class="node"></path>
<path d="M1110 191 c0 -75 -4 -101 -15 -111 -8 -7 -15 -23 -15 -36 0 -30 27
-32 64 -3 25 20 26 23 26 135 l0 114 -30 0 -30 0 0 -99z" id="node24" class="node"></path>
<path d="M1235 265 c-48 -47 -25 -102 52 -131 64 -23 70 -30 50 -52 -19 -21
-23 -62 -7 -62 20 0 68 29 74 45 20 52 1 79 -76 113 -28 12 -48 27 -48 36 0 9
5 16 10 16 6 0 10 14 10 30 0 38 -30 41 -65 5z" id="node25" class="node"></path>
<path d="M1320 265 c0 -32 33 -65 65 -65 34 0 32 24 -4 61 -37 36 -61 38 -61
4z" id="node26" class="node"></path>
<path d="M1210 94 c0 -20 54 -74 74 -74 23 0 21 53 -2 73 -24 22 -72 23 -72 1z" id="node27" class="node"></path>
<path d="M370 50 c0 -30 1 -30 55 -30 54 0 55 0 55 30 0 30 -1 30 -55 30 -54
0 -55 0 -55 -30z" id="node28" class="node"></path>
</g>
<g transform="translate(0.000000,300.000000) scale(0.100000,-0.100000)" fill="#FFFFFF" stroke="none">

<path d="M230 1710 c5 -18 12 -35 16 -39 10 -9 -6 53 -17 63 -5 6 -5 -4 1 -24z" id="node30" class="node"></path>
<path d="M240 1631 c0 -11 4 -22 9 -25 4 -3 6 6 3 19 -5 30 -12 33 -12 6z" id="node31" class="node"></path>
<path d="M1480 1605 c0 -8 2 -15 4 -15 2 0 6 7 10 15 3 8 1 15 -4 15 -6 0 -10
-7 -10 -15z" id="node32" class="node"></path>
<path d="M331 1564 c0 -11 3 -14 6 -6 3 7 2 16 -1 19 -3 4 -6 -2 -5 -13z" id="node33" class="node"></path>
<path d="M1512 1553 c0 -10 -7 -35 -16 -56 -14 -33 -15 -38 -2 -43 8 -3 20 -3
26 1 13 8 14 115 1 115 -6 0 -9 -8 -9 -17z" id="node34" class="node"></path>
<path d="M273 1506 c-1 -28 3 -33 21 -32 11 1 21 8 21 16 0 8 -6 14 -12 13 -7
-2 -13 3 -13 11 0 31 -16 23 -17 -8z" id="node35" class="node"></path>
<path d="M827 1161 c6 -44 -6 -50 -92 -52 l-70 -2 82 -7 c45 -4 95 -13 112
-19 24 -10 34 -10 59 3 20 10 61 17 114 18 l83 1 -76 6 c-82 7 -109 20 -110
55 0 18 -2 18 -10 -6 -6 -14 -17 -29 -26 -32 -18 -7 -59 26 -66 53 -2 9 -2 1
0 -18z" id="node36" class="node"></path>
<path d="M574 1064 c-18 -14 -18 -15 4 -4 12 6 22 13 22 15 0 8 -5 6 -26 -11z" id="node37" class="node"></path>
<path d="M980 1059 c-25 -4 -102 -5 -172 -2 -118 5 -128 4 -162 -16 -20 -13
-36 -27 -36 -31 0 -30 131 -49 175 -26 17 9 45 16 63 16 l32 0 0 -60 0 -60
-34 0 c-19 0 -38 -5 -41 -10 -3 -6 -17 -7 -31 -4 -17 4 -24 2 -24 -9 0 -8 -10
-21 -22 -30 -29 -19 -21 -27 31 -34 39 -5 41 -4 47 26 8 39 19 40 33 1 14 -40
53 -42 67 -3 l9 28 22 -38 c27 -45 51 -47 94 -9 59 53 15 101 -64 70 -21 -8
-34 -8 -53 2 -21 12 -24 20 -24 72 0 42 3 57 11 52 19 -11 131 -29 162 -26 15
2 43 19 62 38 19 19 40 35 47 35 23 2 -86 27 -117 27 -16 0 -50 -4 -75 -9z" id="node38" class="node"></path>
<path d="M1041 914 c0 -11 3 -14 6 -6 3 7 2 16 -1 19 -3 4 -6 -2 -5 -13z" id="node39" class="node"></path>
</g>
</svg>