<!--?xml version="1.0" standalone="no"?--><svg version="1.0" xmlns="http://www.w3.org/2000/svg" width="240.000000pt" height="300.000000pt" viewBox="0 0 240.000000 300.000000" preserveAspectRatio="xMidYMid meet">
<metadata>
  <rdf:rdf xmlns:rdf="http://www.w3.org/1999/02/22-rdf-syntax-ns#" xmlns:rdfs="http://www.w3.org/2000/01/rdf-schema#" xmlns:dc="http://purl.org/dc/elements/1.1/">
    <rdf:description dc:title="jim morrison drawing" dc:publisher="Hiox" dc:date="2015-05-11" dc:format="image/svg+xml" dc:language="en">
      <dc:creator>
        <rdf:bag>
          <rdf:li>svgimages.com</rdf:li>
        </rdf:bag>
      </dc:creator>
    </rdf:description>
  </rdf:rdf>
</metadata>
<g transform="translate(0.000000,300.000000) scale(0.100000,-0.100000)" fill="#060606" stroke="none">
<path d="M612 2985 c-18 -8 -67 -40 -108 -72 -84 -64 -85 -65 -134 -87 -36
-17 -43 -21 -95 -49 -16 -9 -47 -24 -67 -33 -40 -18 -50 -34 -21 -34 13 0 14
-3 5 -12 -7 -7 -12 -19 -12 -28 0 -9 11 -2 29 19 38 46 63 33 27 -14 -15 -19
-26 -41 -26 -49 0 -8 -9 -20 -21 -26 -11 -7 -32 -36 -45 -66 -25 -56 -31 -89
-15 -80 5 3 14 -1 21 -9 11 -13 8 -15 -14 -15 -35 0 -81 -24 -100 -52 -31 -43
-7 -55 26 -13 11 14 29 25 41 25 21 0 21 -1 -5 -23 -14 -12 -32 -33 -38 -47
-15 -29 -15 -215 0 -254 5 -15 10 -52 10 -82 0 -55 42 -207 82 -293 22 -49 19
-108 -8 -159 -16 -31 -19 -140 -4 -193 5 -19 22 -47 38 -62 32 -30 98 -50 90
-26 -2 8 -16 20 -31 27 -51 25 -67 58 -67 137 0 39 3 74 6 77 8 9 54 -17 70
-41 12 -17 12 -21 2 -22 -7 -1 -20 -3 -28 -4 -8 -1 -21 -3 -27 -4 -7 0 -13
-14 -13 -31 0 -23 8 -35 37 -55 21 -13 53 -29 71 -36 27 -9 32 -16 32 -42 0
-42 10 -77 21 -77 5 0 9 6 9 14 0 16 18 31 26 23 3 -3 7 -16 8 -29 8 -63 20
-106 38 -135 14 -24 16 -33 6 -32 -27 1 -51 16 -64 40 -8 15 -13 18 -14 8 0
-8 14 -29 30 -46 26 -27 28 -32 13 -37 -24 -10 -76 48 -77 85 -1 16 -5 24 -10
19 -5 -5 -1 -29 8 -56 19 -57 19 -57 4 -48 -9 6 -9 3 1 -9 7 -9 11 -24 7 -33
-7 -18 7 -48 38 -83 11 -13 15 -21 7 -16 -28 16 -5 -19 32 -49 42 -34 131 -48
171 -27 12 7 39 10 61 8 54 -6 90 9 120 46 27 35 32 34 41 -11 6 -27 4 -32
-14 -32 -11 0 -25 -7 -32 -15 -10 -12 -7 -13 22 -8 l34 5 13 -73 c8 -41 20
-91 29 -112 12 -31 13 -48 3 -94 -6 -31 -11 -70 -11 -87 0 -29 -27 -103 -61
-171 -9 -16 -21 -50 -28 -75 -8 -25 -17 -58 -22 -74 -5 -16 -9 -40 -9 -53 l0
-23 182 2 182 3 12 54 c8 38 9 63 2 83 -16 44 -1 125 36 203 55 115 66 144 66
180 0 51 -68 115 -123 115 -35 0 -82 24 -91 45 -5 14 -4 15 16 0 40 -27 47
-16 12 19 -35 35 -44 75 -21 94 6 5 38 12 71 14 54 5 62 8 101 50 23 25 65 58
93 73 29 16 50 30 48 32 -2 3 -14 -1 -26 -7 -29 -15 -267 -8 -300 10 -44 23
-99 99 -100 136 0 20 6 22 123 27 113 5 187 20 187 39 0 5 -38 5 -85 2 -80 -6
-88 -4 -151 25 -50 23 -70 28 -84 21 -35 -19 -47 -11 -61 37 -7 28 -28 65 -50
88 -23 25 -42 58 -48 83 -5 24 -21 58 -35 77 -14 18 -26 40 -26 47 0 7 -16 46
-36 86 -29 58 -36 84 -36 132 0 32 3 63 7 69 8 14 53 3 84 -21 44 -34 58 -13
19 30 l-23 25 22 -5 c17 -5 23 -1 25 15 4 29 21 31 33 5 14 -32 68 -37 88 -8
l15 22 12 -24 c7 -12 22 -32 35 -43 21 -17 24 -30 26 -90 2 -38 -2 -79 -8 -90
-7 -12 -19 -53 -29 -93 -20 -83 -15 -95 47 -114 34 -10 42 -9 59 7 11 10 30
23 42 29 29 15 35 36 10 36 -11 0 -32 14 -46 31 -24 28 -26 36 -19 83 14 88 6
223 -14 263 -29 59 -78 90 -167 109 -43 9 -91 14 -107 12 -16 -3 -29 -3 -29
-1 0 1 22 14 48 27 27 13 54 32 61 40 8 9 27 16 43 16 40 0 97 33 128 74 29
39 63 44 86 12 15 -20 16 -19 10 23 l-7 43 31 -26 c18 -14 35 -26 39 -26 4 0
22 -21 40 -46 19 -25 45 -51 60 -57 14 -6 29 -16 33 -21 3 -5 33 6 66 26 33
20 64 33 69 28 4 -4 29 -15 54 -24 33 -13 57 -32 84 -67 40 -53 50 -60 40 -29
-3 11 -4 20 -2 20 9 0 66 -175 77 -235 6 -33 15 -71 20 -85 5 -14 11 -46 13
-72 4 -43 2 -48 -16 -48 -17 0 -19 -5 -15 -43 3 -23 18 -63 34 -87 26 -41 29
-53 30 -135 0 -108 26 -183 84 -250 21 -25 41 -53 45 -64 6 -21 68 -67 138
-102 53 -27 149 -61 155 -54 3 3 0 5 -6 5 -6 0 4 25 23 55 36 60 51 139 40
206 -7 38 -6 39 23 39 48 0 60 37 34 102 -8 20 -16 25 -31 21 -17 -4 -21 -1
-21 17 0 17 -4 21 -20 17 -16 -4 -20 0 -20 20 0 14 -9 36 -20 50 -31 40 -24
43 30 17 47 -22 53 -23 78 -10 l27 15 -43 1 c-54 0 -82 15 -82 42 0 12 -11 33
-24 47 l-24 26 23 53 c14 30 30 52 39 52 12 0 14 7 9 30 -4 23 1 40 20 68 14
20 31 51 39 67 7 17 17 33 23 37 6 5 4 23 -7 53 -17 46 -11 57 16 29 20 -19
20 -47 2 -107 -11 -37 -11 -44 0 -40 34 13 46 141 17 183 -9 14 -32 42 -51 64
-32 35 -33 41 -27 85 7 47 24 90 25 62 0 -8 3 -12 6 -9 10 10 -23 73 -54 102
l-31 29 24 29 c14 16 25 33 25 36 0 4 -20 6 -46 4 -53 -5 -75 11 -106 73 -20
39 -20 39 -1 23 31 -29 81 -42 98 -28 23 19 19 24 -27 38 -24 8 -55 25 -70 40
-23 21 -28 34 -28 75 0 37 -7 58 -30 92 -17 24 -30 47 -30 51 0 4 -11 22 -25
39 -16 22 -38 36 -69 44 -24 6 -57 22 -73 35 -35 30 -93 46 -138 39 -30 -5
-39 0 -89 47 -31 29 -56 59 -56 66 0 19 -281 20 -310 2 -15 -10 -26 -10 -53 0
-51 18 -461 16 -505 -3z m-230 -197 c-6 -6 -16 -8 -22 -6 -9 3 -7 9 6 22 13
13 19 15 22 6 2 -6 0 -16 -6 -22z m-78 -33 c-4 -8 -16 -15 -27 -15 -20 0 -20
0 -1 15 25 19 35 19 28 0z m46 -3 c0 -13 -12 -22 -22 -16 -10 6 -1 24 13 24 5
0 9 -4 9 -8z m846 -434 c3 -12 33 -48 65 -80 33 -32 59 -63 59 -68 0 -13 -60
-50 -79 -50 -23 0 -88 75 -106 125 -18 45 -18 46 5 70 29 31 47 32 56 3z m62
-25 c35 -52 38 -60 16 -43 -23 17 -53 52 -54 63 0 16 20 5 38 -20z m257 -100
c8 -29 -6 -29 -31 -2 -15 17 -16 22 -4 29 17 11 25 4 35 -27z m-141 -9 c3 -8
2 -12 -4 -9 -6 3 -10 10 -10 16 0 14 7 11 14 -7z m-564 -274 c0 -5 -4 -10 -10
-10 -5 0 -10 5 -10 10 0 6 5 10 10 10 6 0 10 -4 10 -10z m-347 -545 c-5 -16
-33 -21 -33 -7 0 13 22 32 31 26 5 -2 6 -11 2 -19z m-143 -41 c0 -24 -2 -25
-17 -13 -10 7 -20 14 -22 16 -8 5 11 23 25 23 8 0 14 -10 14 -26z m175 -32
c-5 -14 -7 -14 -15 -2 -5 9 -4 20 3 28 14 17 22 0 12 -26z m-88 22 c-3 -3 -12
-4 -19 -1 -8 3 -5 6 6 6 11 1 17 -2 13 -5z m58 -41 c4 -12 -1 -24 -16 -36 -21
-17 -23 -17 -46 4 -29 28 -29 36 0 42 44 9 55 7 62 -10z m105 -468 c0 -29
-107 -33 -134 -5 -8 8 -7 10 4 6 8 -3 31 -1 50 3 55 14 80 13 80 -4z m376
-224 c99 -62 134 -125 134 -239 0 -40 -8 -69 -34 -120 -19 -38 -41 -94 -50
-126 -8 -32 -17 -60 -20 -63 -6 -6 -12 35 -21 127 -7 69 -55 319 -79 408 -17
64 -12 65 70 13z" id="node1" class="node"></path>
<path d="M1186 2044 c-12 -11 -13 -20 -6 -34 13 -24 13 -23 -11 -51 l-20 -24
26 -8 c17 -6 31 -5 41 4 13 10 17 10 25 -2 5 -8 9 -17 9 -20 0 -4 12 -9 28
-12 31 -6 72 16 72 39 0 12 7 15 29 12 17 -2 28 -1 25 4 -3 4 10 5 28 2 l33
-6 -29 20 c-17 12 -47 24 -69 27 -21 4 -41 13 -43 20 -3 7 -25 16 -50 20 -24
3 -44 10 -44 16 0 14 -27 11 -44 -7z" id="node2" class="node"></path>
<path d="M1102 1558 c-18 -18 -15 -25 11 -22 12 1 30 3 40 3 9 1 17 8 17 16 0
18 -50 21 -68 3z" id="node3" class="node"></path>
<path d="M939 1341 c-58 -36 -77 -59 -57 -66 8 -3 26 -2 39 4 14 5 46 7 72 4
31 -4 47 -2 47 6 0 6 9 11 20 11 10 0 31 5 44 12 21 9 29 8 43 -4 13 -12 31
-15 71 -11 51 5 74 23 30 23 -13 1 -34 7 -48 15 -18 10 -43 12 -91 8 -49 -4
-73 -2 -96 10 -29 16 -32 15 -74 -12z" id="node4" class="node"></path>
<path d="M1599 1273 c-8 -15 -23 -37 -34 -49 -38 -42 -46 -54 -36 -54 6 0 16
10 22 23 7 12 18 25 25 30 13 8 47 68 41 74 -2 1 -10 -9 -18 -24z" id="node5" class="node"></path>
<path d="M1410 1065 c-7 -9 -10 -18 -7 -21 3 -3 10 4 17 15 13 25 8 27 -10 6z" id="node6" class="node"></path>
<path d="M1360 1008 c-12 -22 -12 -22 6 -6 10 10 15 20 12 24 -4 3 -12 -5 -18
-18z" id="node7" class="node"></path>
<path d="M2140 833 c14 -10 37 -25 51 -33 58 -33 108 -71 157 -119 29 -27 52
-44 52 -37 0 33 -153 157 -235 192 -46 19 -55 18 -25 -3z" id="node8" class="node"></path>





<path d="M1830 322 c-14 -78 -11 -112 22 -234 l23 -88 112 0 c94 0 111 2 107
14 -3 8 -16 22 -29 30 -42 27 -153 210 -194 319 -17 43 -28 32 -41 -41z" id="node14" class="node"></path>







</g>
<g transform="translate(0.000000,300.000000) scale(0.100000,-0.100000)" fill="#FFFFFF" stroke="none">

<path d="M1110 2990 c20 -13 57 -13 65 0 4 6 -11 10 -37 10 -31 0 -39 -3 -28
-10z" id="node23" class="node"></path>

<path d="M366 2804 c-13 -13 -15 -19 -6 -22 15 -5 33 13 28 28 -3 9 -9 7 -22
-6z" id="node25" class="node"></path>
<path d="M276 2755 c-19 -15 -19 -15 1 -15 11 0 23 7 27 15 7 19 -3 19 -28 0z" id="node26" class="node"></path>
<path d="M325 2751 c-6 -11 9 -23 19 -14 9 9 7 23 -3 23 -6 0 -12 -4 -16 -9z" id="node27" class="node"></path>
<path d="M1140 2315 c-23 -24 -23 -25 -5 -70 18 -50 83 -125 106 -125 19 0 79
37 79 50 0 5 -26 36 -59 68 -32 32 -62 68 -65 80 -9 29 -27 28 -56 -3z" id="node28" class="node"></path>
<path d="M1220 2313 c1 -11 31 -46 54 -63 18 -13 19 -13 11 0 -31 55 -66 88
-65 63z" id="node29" class="node"></path>
<path d="M1480 2220 c-12 -7 -11 -12 4 -29 25 -27 39 -27 31 2 -10 31 -18 38
-35 27z" id="node30" class="node"></path>
<path d="M1360 2191 c0 -6 4 -13 10 -16 6 -3 7 1 4 9 -7 18 -14 21 -14 7z" id="node31" class="node"></path>
<path d="M790 1910 c0 -5 5 -10 10 -10 6 0 10 5 10 10 0 6 -4 10 -10 10 -5 0
-10 -4 -10 -10z" id="node32" class="node"></path>
<path d="M442 1378 c-16 -16 -15 -28 2 -28 16 0 29 27 17 34 -4 3 -13 0 -19
-6z" id="node33" class="node"></path>
<path d="M285 1339 c-4 -6 -5 -11 -4 -12 2 -2 12 -9 22 -16 15 -12 17 -11 17
13 0 26 -22 36 -35 15z" id="node34" class="node"></path>
<path d="M483 1318 c-7 -8 -8 -19 -3 -28 8 -12 10 -12 15 2 10 26 2 43 -12 26z" id="node35" class="node"></path>
<path d="M388 1313 c7 -3 16 -2 19 1 4 3 -2 6 -13 5 -11 0 -14 -3 -6 -6z" id="node36" class="node"></path>
<path d="M403 1283 c-29 -6 -29 -14 0 -42 23 -21 25 -21 46 -4 15 12 20 24 16
36 -7 17 -18 19 -62 10z" id="node37" class="node"></path>
<path d="M490 809 c-19 -4 -42 -6 -50 -3 -11 4 -12 2 -4 -6 27 -28 134 -24
134 5 0 17 -25 18 -80 4z" id="node38" class="node"></path>
<path d="M876 568 c24 -89 72 -339 79 -408 9 -92 15 -133 21 -127 3 3 12 31
20 63 9 32 31 88 50 126 26 51 34 80 34 120 0 114 -35 177 -134 239 -82 52
-87 51 -70 -13z" id="node39" class="node"></path>
</g>
</svg>